<?xml version="1.0" encoding="UTF-8" standalone="no"?>
<svg
   version="1.1"
   width="512"
   height="512"
   viewBox="0 0 512 512"
   id="svg2"
   sodipodi:docname="logo.svg"
   inkscape:version="1.3 (1:1.3+202307231459+0e150ed6c4)"
   xmlns:inkscape="http://www.inkscape.org/namespaces/inkscape"
   xmlns:sodipodi="http://sodipodi.sourceforge.net/DTD/sodipodi-0.dtd"
   xmlns="http://www.w3.org/2000/svg"
   xmlns:svg="http://www.w3.org/2000/svg">
  <sodipodi:namedview
     id="namedview1"
     pagecolor="#ffffff"
     bordercolor="#000000"
     borderopacity="0.25"
     inkscape:showpageshadow="2"
     inkscape:pageopacity="0.0"
     inkscape:pagecheckerboard="0"
     inkscape:deskcolor="#d1d1d1"
     inkscape:zoom="1.1771429"
     inkscape:cx="349.57524"
     inkscape:cy="282.03883"
     inkscape:window-width="1920"
     inkscape:window-height="1024"
     inkscape:window-x="1920"
     inkscape:window-y="582"
     inkscape:window-maximized="1"
     inkscape:current-layer="svg2" />
  <defs
     id="defs2" />
  <g
     id="g1"
     transform="matrix(5.8181818,0,0,5.8181818,-34.909091,-34.909091)">
    <circle
       style="fill:#319795;fill-opacity:1;stroke-width:0.218694"
       id="path2"
       cx="49.999996"
       cy="49.999996"
       r="42.742855" />
    <path
       d="M 50,6 C 25.699,6 6,25.699 6,50 6,74.301 25.699,94 50,94 74.301,94 94,74.301 94,50 94,25.699 74.301,6 50,6 Z m 9,10 c 3.859,0 7,3.14 7,7 0,3.86 -3.141,7 -7,7 -3.859,0 -7,-3.14 -7,-7 0,-3.86 3.141,-7 7,-7 z m 18.121,27.121 -9,9 C 67.556,52.687 66.792,53 66,53 c -0.098,0 -0.197,-0.005 -0.296,-0.015 -0.895,-0.089 -1.702,-0.573 -2.2,-1.321 l -5.487,-8.23 -4.222,12.668 9.153,3.052 c 0.987,0.328 1.732,1.145 1.972,2.156 0.238,1.012 -0.063,2.075 -0.799,2.811 l -11,11 C 52.535,75.707 51.768,76 51,76 c -0.768,0 -1.536,-0.293 -2.121,-0.879 -1.172,-1.171 -1.172,-3.071 0,-4.242 l 7.567,-7.567 -7.395,-2.466 C 48.293,60.593 47.708,60.064 47.359,59.41 L 46.163,63 c -0.325,0.972 -1.027,2.107 -1.749,2.828 L 31.121,79.121 C 30.536,79.707 29.768,80 29,80 c -0.768,0 -1.536,-0.293 -2.121,-0.879 -1.172,-1.171 -1.172,-3.071 0,-4.242 L 40.172,61.586 c 0.079,-0.089 0.255,-0.374 0.306,-0.504 L 48.171,38 h -5.009 l -3.316,9.949 c -0.524,1.571 -2.224,2.421 -3.795,1.897 -1.572,-0.524 -2.421,-2.223 -1.897,-3.795 l 4,-12 C 38.562,32.826 39.708,32 41,32 h 13.766 c 1.778,0 3.429,0.883 4.415,2.363 l 7.285,10.928 6.413,-6.412 c 1.172,-1.172 3.07,-1.172 4.242,0 1.172,1.171 1.172,3.071 0,4.242 z"
       id="path1"
       style="fill:#26413c;fill-opacity:1" />
  </g>
</svg>
