
        <svg xmlns="http://www.w3.org/2000/svg" xmlns:xlink="http://www.w3.org/1999/xlink" version="1.1" width="3165.35723723087" height="647.538940996086" viewBox="0 0 3165.35723723087 647.538940996086">
			<g transform="scale(8.267861861543487) translate(10, 10)">
				<g fill="#ccc" id="SvgjsG8897" featureKey="nameLeftFeature-0" transform="matrix(2.4827586206896552,0,0,2.4827586206896552,-0.19862050023572198,-2.9034492229593223)"><path d="M9.6 7.76 l3.28 0 l-4.9 12.24 l-3 0 l-4.9 -12.24 l3.26 0 l3.14 8.82 z M13.474 10 l3 0 l0 10 l-3 0 l0 -10 z M14.974 9.06 c-1.02 0 -1.74 -0.72 -1.74 -1.74 c0 -1.04 0.72 -1.72 1.74 -1.72 c1.04 0 1.72 0.68 1.72 1.72 c0 1.06 -0.66 1.74 -1.72 1.74 z M21.128 15 l0 5 l-3 0 l0 -4.98 c0 -3.32 2.44 -5.12 5.52 -5.12 c0.1 0 0.24 0 0.38 0.02 s0.3 0.06 0.44 0.08 l0 2.9 c-0.1 -0.02 -0.22 -0.04 -0.36 -0.06 s-0.26 -0.04 -0.36 -0.04 c-0.5 0 -0.9 0.06 -1.24 0.16 c-0.56 0.2 -1.06 0.58 -1.24 1.18 c-0.1 0.26 -0.14 0.56 -0.14 0.86 z M30.862000000000002 10.34 l0 2.78 l-2.8 0 l0 1.88 c0 1.54 1.02 2.32 2.5 2.32 c0.18 0 0.34 -0.02 0.48 -0.04 s0.26 -0.04 0.4 -0.06 l0 2.78 c-0.18 0.02 -0.32 0.06 -0.42 0.08 c-0.12 0.02 -0.32 0.02 -0.58 0.02 c-3.02 0 -5.38 -2.06 -5.38 -5.1 l0 -7.4 l3 0 l0 2.74 l2.8 0 z M39.056 10 l3 0 l0 5 c0 3.06 -2.12 5.1 -5.1 5.1 c-3.06 0 -5.1 -2.14 -5.1 -5.1 l0 -5 l3 0 l0 5 c0 1.34 0.68 2.32 2.1 2.32 c1.46 0 2.1 -0.96 2.1 -2.32 l0 -5 z M50.629999999999995 15 c-0.08 -1.46 -0.74 -2.32 -2.26 -2.32 c-0.42 0 -0.78 0.06 -1.08 0.18 c-0.92 0.42 -1.26 1.2 -1.26 2.16 c0 0.32 0.04 0.62 0.14 0.88 c0.3 1.04 1.2 1.42 2.2 1.42 c1.52 0 2.26 -0.82 2.26 -2.32 z M54.43 20 l-3 0 c-0.2 -0.5 -0.38 -1 -0.5 -1.52 c-0.68 1.12 -1.72 1.62 -3 1.62 c-2.86 0 -4.9 -2.4 -4.9 -5.14 c0 -3.16 2.36 -5.06 5.34 -5.06 c3.18 0 5.18 2.04 5.26 5.1 c0.02 0.26 0.02 0.56 0.02 0.92 c0 1.4 0.22 2.8 0.78 4.08 z M55.083999999999996 6 l3 0 l0 14 l-3 0 l0 -14 z"/></g>
				<g fill="#26413C" id="SvgjsG8898" featureKey="inlineSymbolFeature-0" transform="matrix(0.6627272727272728,0,0,0.6627272727272728,160.02363636363637,-3.976363636363637)"><g xmlns="http://www.w3.org/2000/svg"><path d="M50,6C25.699,6,6,25.699,6,50s19.699,44,44,44s44-19.699,44-44S74.301,6,50,6z M59,16c3.859,0,7,3.14,7,7   s-3.141,7-7,7s-7-3.14-7-7S55.141,16,59,16z M77.121,43.121l-9,9C67.556,52.687,66.792,53,66,53c-0.098,0-0.197-0.005-0.296-0.015   c-0.895-0.089-1.702-0.573-2.2-1.321l-5.487-8.23l-4.222,12.668l9.153,3.052c0.987,0.328,1.732,1.145,1.972,2.156   c0.238,1.012-0.063,2.075-0.799,2.811l-11,11C52.535,75.707,51.768,76,51,76s-1.536-0.293-2.121-0.879   c-1.172-1.171-1.172-3.071,0-4.242l7.567-7.567l-7.395-2.466c-0.758-0.253-1.343-0.782-1.692-1.436L46.163,63   c-0.325,0.972-1.027,2.107-1.749,2.828L31.121,79.121C30.536,79.707,29.768,80,29,80s-1.536-0.293-2.121-0.879   c-1.172-1.171-1.172-3.071,0-4.242l13.293-13.293c0.079-0.089,0.255-0.374,0.306-0.504L48.171,38h-5.009l-3.316,9.949   c-0.524,1.571-2.224,2.421-3.795,1.897c-1.572-0.524-2.421-2.223-1.897-3.795l4-12C38.562,32.826,39.708,32,41,32h13.766   c1.778,0,3.429,0.883,4.415,2.363l7.285,10.928l6.413-6.412c1.172-1.172,3.07-1.172,4.242,0   C78.293,40.05,78.293,41.95,77.121,43.121z"/></g></g>
				<g fill="#ccc" id="SvgjsG8899" featureKey="nameRightFeature-0" transform="matrix(2.4827586206896552,0,0,2.4827586206896552,229.70041380257442,-2.9034492229593223)"><path d="M7.954000000000001 15 c0 1.48 0.74 2.32 2.24 2.32 c0.42 0 0.8 -0.06 1.1 -0.2 c0.56 -0.22 0.94 -0.64 1.14 -1.22 c0.08 -0.28 0.12 -0.58 0.12 -0.9 s-0.04 -0.62 -0.12 -0.9 c-0.22 -0.62 -0.56 -0.96 -1.14 -1.24 c-0.3 -0.12 -0.68 -0.18 -1.1 -0.18 c-1.5 0 -2.24 0.84 -2.24 2.32 z M7.954000000000001 19 l0 5 l-3 0 l0 -9 c0 -3.2 2.26 -5.1 5.28 -5.1 c3.08 0 5.32 2.02 5.32 5.08 c0 2.84 -2.14 5.12 -4.98 5.12 c-0.58 0 -1.08 -0.1 -1.5 -0.3 c-0.44 -0.18 -0.82 -0.46 -1.12 -0.8 z M23.528 15 c-0.08 -1.46 -0.74 -2.32 -2.26 -2.32 c-0.42 0 -0.78 0.06 -1.08 0.18 c-0.92 0.42 -1.26 1.2 -1.26 2.16 c0 0.32 0.04 0.62 0.14 0.88 c0.3 1.04 1.2 1.42 2.2 1.42 c1.52 0 2.26 -0.82 2.26 -2.32 z M27.328000000000003 20 l-3 0 c-0.2 -0.5 -0.38 -1 -0.5 -1.52 c-0.68 1.12 -1.72 1.62 -3 1.62 c-2.86 0 -4.9 -2.4 -4.9 -5.14 c0 -3.16 2.36 -5.06 5.34 -5.06 c3.18 0 5.18 2.04 5.26 5.1 c0.02 0.26 0.02 0.56 0.02 0.92 c0 1.4 0.22 2.8 0.78 4.08 z M35.942 16.7 l0 3 c-1.02 0.34 -2.08 0.44 -3.14 0.44 c-3.1 0 -5.3 -2.06 -5.3 -5.12 c0 -3.18 2.28 -5.12 5.3 -5.12 c1.06 0 2.12 0.1 3.14 0.44 l0 3 c-0.88 -0.46 -1.98 -0.58 -2.96 -0.58 c-0.66 0 -1.46 0.14 -1.92 0.66 c-0.42 0.42 -0.56 1.02 -0.56 1.58 c0 0.32 0.04 0.62 0.14 0.88 c0.08 0.28 0.22 0.52 0.42 0.72 c0.44 0.54 1.26 0.68 1.92 0.68 c0.88 0 2.18 -0.16 2.96 -0.58 z M39.79600000000001 13.8 c0.3 0.1 0.64 0.18 1 0.22 c0.36 0.06 0.7 0.08 1.02 0.08 c0.4 0 1.42 -0.08 1.42 -0.66 c0 -0.62 -0.88 -0.64 -1.32 -0.64 c-0.88 0 -1.64 0.2 -2.12 1 z M45.456 16.88 l0 2.8 c-1.12 0.26 -2.24 0.44 -3.4 0.44 c-3.18 0 -5.54 -1.86 -5.54 -5.08 c0 -3.18 2.28 -5.14 5.3 -5.14 c2.06 0 4.44 0.98 4.44 3.32 c0 2.32 -2.52 3.18 -4.46 3.18 c-0.74 0 -1.48 -0.2 -2.16 -0.48 c0.4 1.12 1.6 1.3 2.64 1.3 c0.54 0 1.08 -0.02 1.62 -0.1 c0.5 -0.04 1.08 -0.1 1.56 -0.24 z M50.290000000000006 15 l0 5 l-3 0 l0 -4.98 c0 -3.32 2.44 -5.12 5.52 -5.12 c0.1 0 0.24 0 0.38 0.02 s0.3 0.06 0.44 0.08 l0 2.9 c-0.1 -0.02 -0.22 -0.04 -0.36 -0.06 s-0.26 -0.04 -0.36 -0.04 c-0.5 0 -0.9 0.06 -1.24 0.16 c-0.56 0.2 -1.06 0.58 -1.24 1.18 c-0.1 0.26 -0.14 0.56 -0.14 0.86 z"/></g>
			</g>
		</svg>
	